<svg xmlns="http://www.w3.org/2000/svg" viewBox="0 0 89 82" xmlns:v="https://vecta.io/nano"><path d="M73.9 38v-9.1c2.4-.5 4.6-1.9 6-3.8a10.04 10.04 0 0 0 2-6.9V18L76.8.6c-.1-.3-.4-.6-.8-.6H6.5c-.4 0-.8.3-.9.7L1.7 18.1v.1a10.04 10.04 0 0 0 2 6.9c1.5 2 3.6 3.3 6.1 3.8v36.4H6c-1.6 0-3.1.6-4.2 1.7C.6 68.2 0 69.7 0 71.3v.2c0 1.6.6 3.1 1.8 4.2 1.1 1.1 2.7 1.8 4.2 1.8h46.6c5.3 4 12.1 5.4 18.6 4s12-5.6 15.1-11.4 3.6-12.7 1.2-18.9-7.4-11-13.6-13.2zM7.2 1.7h68.1l2.7 9.2H5.1l2.1-9.2zm-1.6 23a8.18 8.18 0 0 1-2.2-6.3l1.3-5.7h73.8l1.7 5.7c.2 2.3-.7 4.6-2.3 6.3s-3.8 2.7-6.2 2.7c-2.7 0-5.1-1.2-7-3.1-1.2-1.3-2-3-2.2-4.8v-1.3c0-.2-.1-.5-.3-.6-.2-.2-.4-.3-.6-.3-.5 0-.8.3-.9.8v1.4c-.2 1.8-.9 3.5-2.2 4.8-1.8 1.9-4.2 3-6.8 3-2.7 0-5.2-1.2-7-3.1-1.3-1.3-2.1-3-2.2-4.8v-1.1c0-.2-.1-.5-.2-.7-.2-.2-.4-.3-.6-.3s-.5.1-.6.3c-.2.2-.2.4-.2.7v1.1c-.2 1.8-1 3.6-2.2 4.9-1.7 1.9-4.2 3-6.8 3-2.5 0-4.9-1.1-6.7-3-1.3-1.4-2.1-3.1-2.3-5v-1.1c0-.2-.1-.5-.2-.7-.2-.2-.4-.3-.6-.3s-.5.1-.6.3c-.2.2-.2.4-.2.7v1.1c-.2 1.8-1 3.5-2.2 4.8-1.8 2-4.4 3.1-7 3.2s-4.9-.9-6.5-2.6zm38.7 40.6H11.5V29.1h.3c3.2-.1 6.2-1.4 8.4-3.7.7-.8 1.3-1.7 1.8-2.6.5 1 1.1 2 1.9 2.8 2.1 2.2 4.9 3.5 8 3.5s6-1.3 8.1-3.6c.7-.8 1.4-1.7 1.8-2.7.4 1 1 1.8 1.8 2.6 2.1 2.3 5.1 3.6 8.3 3.7 3.1 0 6-1.3 8.1-3.6.7-.8 1.4-1.7 1.8-2.7.5 1 1.1 1.8 1.8 2.6 2.1 2.3 5.1 3.7 8.3 3.7h.3v8.4c-1.9-.5-3.9-.8-5.8-.8-7.1 0-13.7 3.3-18 8.9-4.5 5.6-5.9 12.9-4.1 19.7zM6 75.7c-1.1 0-2.2-.4-3-1.2s-1.2-1.9-1.2-3v-.2c0-1.1.4-2.2 1.2-3s1.9-1.2 3-1.2h38.9a22.51 22.51 0 0 0 5.6 8.6H6zm60.3 4.6c-5.6 0-10.9-2.2-14.8-6.1s-6.1-9.2-6.1-14.8 2.2-10.9 6.2-14.8c3.9-3.9 9.3-6.1 14.8-6.1 5.6 0 10.9 2.2 14.8 6.1s6.1 9.3 6.1 14.8-2.3 10.8-6.2 14.7c-3.9 4-9.3 6.2-14.8 6.2zm0-35.8c-2.6 0-5.1 1-6.9 2.9-1.8 1.8-2.9 4.3-2.9 6.9 0 3 2.9 9.4 8.7 19.1l.3.5c.1.3.4.5.7.5h0c.3 0 .6-.2.7-.4l.1-.1.1-.3C70.5 68 76 58.3 76 54.2c0-2.6-1-5-2.9-6.8-1.8-1.9-4.2-2.9-6.8-2.9h0zm0 27.1c-7-11.7-8-16-8-17.4-.1-2.2.7-4.3 2.3-5.8 1.5-1.6 3.6-2.4 5.8-2.4a8.25 8.25 0 0 1 5.8 2.4c1.5 1.6 2.3 3.7 2.3 5.8-.2 2.6-3.2 9-8.2 17.4h0zm0-21.7c-1.1 0-2.1.4-2.9 1.2s-1.2 1.8-1.2 2.8c0 1.1.4 2.1 1.2 2.8.8.8 1.8 1.2 2.9 1.2s2.1-.4 2.9-1.2 1.2-1.8 1.2-2.8c0-1.1-.4-2.1-1.2-2.8s-1.9-1.1-2.9-1.2h0zm0 6.3c-.9 0-1.8-.6-2.1-1.4-.4-.8-.2-1.8.5-2.5s1.6-.8 2.5-.5c.9.4 1.4 1.2 1.4 2.1 0 .6-.2 1.2-.6 1.6a2.34 2.34 0 0 1-1.7.7h0z"/></svg>