<svg xmlns="http://www.w3.org/2000/svg" viewBox="0 0 20.4 20.2" xmlns:v="https://vecta.io/nano"><path d="M17 15.8l-2.6-2c-.5-.4-1.3-.3-1.8.2s-.8.9-.9 1c-.8.8-2.5-.4-4.2-2.1S4.6 9.4 5.4 8.6c.1-.1.5-.4 1-.9.5-.4.6-1.2.2-1.7L4.5 3.4C4.1 3 3.5 2.8 3 3c-.7.3-2 1.4-2.3 1.7-1.9 1.9.4 6.2 4.6 10.3s8.5 6.5 10.4 4.6c.3-.3 1.4-1.6 1.7-2.3.2-.6.1-1.2-.4-1.5zm-6.5-9.2c-.5-.1-1.1.3-1 .9 0 .4.3.7.6.8.5.1.9.3 1.3.7.3.3.6.8.7 1.2s.4.6.8.6c.6 0 1-.5.9-1-.2-.7-.5-1.4-1.1-2-.7-.6-1.4-1-2.2-1.2zm5.7 4.5c.5 0 .9-.4.9-.9-.2-1.7-.9-3.4-2.2-4.7s-3-2-4.7-2.2c-.5 0-1 .4-.9.9 0 .4.3.7.8.8 1.4.1 2.7.7 3.7 1.7s1.6 2.3 1.7 3.6c0 .4.3.8.7.8zm1.1-7.9c-2-2-4.7-3.1-7.4-3.2-.5 0-.9.4-.9.9 0 .4.4.8.8.8 2.3.1 4.5 1 6.2 2.7s2.6 3.9 2.7 6.1c0 .4.3.8.8.8s.9-.4.9-.9c0-2.6-1.1-5.2-3.1-7.2z"/></svg>