<svg xmlns="http://www.w3.org/2000/svg" viewBox="0 0 49 56" xmlns:v="https://vecta.io/nano"><path d="M19.8 49.9a2.26 2.26 0 0 1 2.3 2.3 2.26 2.26 0 0 1-2.3 2.3 2.26 2.26 0 0 1-2.3-2.3 2.26 2.26 0 0 1 2.3-2.3zm0-1.5a3.8 3.8 0 0 0 0 7.6 3.8 3.8 0 0 0 3.8-3.8c0-2.1-1.8-3.8-3.8-3.8zm19.6 1.5a2.26 2.26 0 0 1 2.3 2.3 2.26 2.26 0 0 1-2.3 2.3 2.26 2.26 0 0 1-2.3-2.3c0-1.3 1.1-2.3 2.3-2.3zm0-1.5a3.8 3.8 0 0 0 0 7.6 3.8 3.8 0 0 0 0-7.6zm3.8-1.5H16.4c-1.7 0-3.4-.7-4.6-2-3.1-3.2-2.2-8.8 2.6-10.5-.5-.5-.9-1.2-1.1-2l-5.6-28H2.3C.9 4.5-.2 3.3 0 1.9.2.8 1.2 0 2.4 0h7.2c1.1 0 2 .8 2.2 1.8l2.7 13.3h32.3c1.4 0 2.5 1.3 2.2 2.7l-3.5 17c0 2.1-1.7 3.7-3.8 3.7H16.4c-2.5 0-2.6 3.8.1 3.8h26.8c2.9.1 2.9 4.6-.1 4.6h0zM2.4 1.5c-.4 0-.8.3-.8.6-.1.4.1.8.5.9h.1 6c.4 0 .7.3.8.6l5.7 28.6c.2.8.7 1.5 1.5 1.7.9.3.8 1.6-.2 1.7-4.6.6-6 5.5-3.3 8.3.9 1 2.2 1.5 3.5 1.5h26.9c1 0 1-1.5 0-1.5H16.4c-1.7 0-3.1-1.1-3.4-2.7-.4-2.2 1.2-4.1 3.3-4.1h25.3a2.26 2.26 0 0 0 2.3-2.3c0-.1 3.5-17.1 3.5-17.3.1-.4-.2-.8-.6-.9h-.2-33c-.4 0-.7-.3-.7-.6L10.2 2.1c-.1-.4-.4-.6-.7-.6H2.4zm34.7 23.2h-2.4v-3.9c0-.4-.3-.8-.8-.8h-8.8c-.4 0-.8.3-.8.8v3.9h-2.4c-1 0-1.5 1.2-.8 1.9l7.5 7.6c.4.4 1.2.4 1.6 0l7.6-7.6c.9-.7.3-1.9-.7-1.9h0zm-7.5 8.1L23 26.2h2.3c.4 0 .8-.3.8-.8v-3.9h7.3v3.9c0 .4.3.8.8.8h2.3l-6.9 6.6h0z"/></svg>