<svg xmlns="http://www.w3.org/2000/svg" viewBox="0 0 65 77" xmlns:v="https://vecta.io/nano"><path d="M7.2 27.7v-7.2c0-.7-.5-1.2-1.2-1.2s-1.2.5-1.2 1.2v7.2c0 .7.5 1.2 1.2 1.2s1.2-.6 1.2-1.2zm0 14.4v-7.2c0-.7-.5-1.2-1.2-1.2s-1.2.5-1.2 1.2v7.2c0 .7.5 1.2 1.2 1.2s1.2-.5 1.2-1.2zm-2.4 7.2v7.2c0 .7.5 1.2 1.2 1.2s1.2-.5 1.2-1.2v-7.2c0-.7-.5-1.2-1.2-1.2-.6 0-1.2.6-1.2 1.2zM6 77h57.8c.7 0 1.2-.5 1.2-1.2V1.2c0-.7-.5-1.2-1.2-1.2H6c-.6 0-1.2.5-1.2 1.2v12c0 .7.5 1.2 1.2 1.2s1.2-.5 1.2-1.2V2.4h55.4v72.2H7.2V63.8c0-.7-.5-1.2-1.2-1.2s-1.2.5-1.2 1.2v12c0 .7.6 1.2 1.2 1.2zm3.6-61.4H1.2c-.7 0-1.2.5-1.2 1.2S.5 18 1.2 18h8.4c.7 0 1.2-.5 1.2-1.2 0-.6-.5-1.2-1.2-1.2zm0 14.5H1.2c-.7 0-1.2.5-1.2 1.2s.5 1.2 1.2 1.2h8.4c.7 0 1.2-.5 1.2-1.2s-.5-1.2-1.2-1.2zm1.2 15.6c0-.7-.5-1.2-1.2-1.2H1.2c-.7 0-1.2.5-1.2 1.2s.5 1.2 1.2 1.2h8.4c.7 0 1.2-.5 1.2-1.2zM1.2 61.4h8.4c.7 0 1.2-.5 1.2-1.2S10.3 59 9.6 59H1.2c-.7 0-1.2.5-1.2 1.2 0 .6.5 1.2 1.2 1.2zm19.3-13.3c0 .7.5 1.2 1.2 1.2H47c.7 0 1.2-.5 1.2-1.2 0-6-3.9-11.2-9.3-13.1 1.6-1.3 2.7-3.4 2.7-5.6a7.17 7.17 0 0 0-7.2-7.2c-4 0-7.2 3.3-7.2 7.2 0 2.3 1 4.3 2.7 5.6-5.5 2-9.4 7.1-9.4 13.1zm9-18.6c0-2.7 2.1-4.8 4.8-4.8s4.8 2.1 4.8 4.8-2.1 4.8-4.8 4.8-4.8-2.2-4.8-4.8zm4.8 7.2c5.9 0 10.8 4.5 11.4 10.2H22.9c.6-5.7 5.5-10.2 11.4-10.2zM18.1 55.3c0 .7.5 1.2 1.2 1.2h30.1c.7 0 1.2-.5 1.2-1.2s-.5-1.2-1.2-1.2H19.3c-.7 0-1.2.6-1.2 1.2z"/></svg>