<svg xmlns="http://www.w3.org/2000/svg" viewBox="0 0 54 64" xmlns:v="https://vecta.io/nano"><path d="M25.4 46.9v.4c0 .8-1.3.8-1.3 0v-.4c-2.5-.4-2.9-2.8-1.7-2.8a.65.65 0 0 1 .6.6c0 .8 1.9 1.3 3.1.6.3-.2.4-.4.4-.6 0-.6-.9-.8-1.8-.9-1.5-.2-2.9-.4-2.9-2.2 0-1.2 1.2-2 2.4-2.1v-.4c0-.8 1.3-.8 1.3 0v.4c2.5.4 2.9 2.8 1.7 2.8a.65.65 0 0 1-.6-.6c0-.8-1.9-1.3-3.1-.6-.3.2-.4.4-.4.6 0 .6.9.8 1.8.9 1.5.2 2.9.4 2.9 2.2 0 1.2-1.2 1.9-2.4 2.1zm-.6 4.7c-4.7 0-8.4-3.8-8.4-8.4s3.8-8.4 8.4-8.4c4.7 0 8.4 3.8 8.4 8.4s-3.7 8.4-8.4 8.4zm-5.1-3.3a7.12 7.12 0 0 0 10.1 0 7.12 7.12 0 0 0 0-10.1 7.12 7.12 0 0 0-10.1 0c-2.7 2.8-2.8 7.3 0 10.1zm-9.5-4.4c-.8 0-.8-1.3 0-1.3h4.3c.8 0 .8 1.3 0 1.3h-4.3zm24.9 0c-.8 0-.8-1.3 0-1.3h4.3c.8 0 .8 1.3 0 1.3h-4.3zM39 32.8H10.6c-.2.4-.5.8-.7 1.2-1 1.4-2.3 2.5-3.8 3.2v12.1a11.45 11.45 0 0 1 4.6 4.4H39c1-1.9 2.6-3.5 4.6-4.4V37.2c-2-1-3.6-2.5-4.6-4.4zm-28.8-1.3h29.2c.3 0 .5.1.6.4.7 1.4 1.8 2.7 3.1 3.6.4.3.9.5 1.3.8.3.1.4.3.4.6v12.9c0 .2-.1.5-.4.6-2 .9-3.6 2.4-4.5 4.3-.1.2-.3.4-.6.4H10.2c-.3 0-.5-.1-.6-.4-.9-1.9-2.5-3.5-4.5-4.3-.2-.1-.4-.3-.4-.6v-13c0-.3.1-.5.4-.6 1.5-.7 2.7-1.7 3.7-3 .3-.4.6-.9.8-1.4.1-.1.4-.3.6-.3zM49 59.4H5.6v3.4h47.1V33h-3.1v25.7c0 .4-.3.7-.6.7zm-44.6 0H.6a.65.65 0 0 1-.6-.6v-31c0-.4.3-.6.6-.6H49a.65.65 0 0 1 .6.6v4h3.7c.4 0 .6.3.6.6v31c0 .4-.3.6-.6.6H5c-.4 0-.6-.3-.6-.6v-4h0zm-3.1-1.3h47.1V28.4H1.3v29.7zM8 17l8.5-9.1c-1.9-2.4-.1-6 3-6 2.1 0 3.8 1.7 3.8 3.7 0 1.1-.5 2.1-1.2 2.8l5.3 7.4c1.5-.7 3.2-.4 4.3.8L44.8 5.7C43.3 3.2 45.1 0 48 0c2.1 0 3.8 1.7 3.8 3.7 0 3.2-3.7 4.9-6.1 2.9l-13.2 11c1.2 2.5-.7 5.3-3.4 5.3-2.1 0-3.8-1.7-3.8-3.7 0-1 .4-2 1.1-2.6L21 9.1c-1.2.5-2.5.4-3.5-.3L9 17.9c1.9 2.4.1 6-3 6-2.1 0-3.8-1.7-3.8-3.7 0-3.1 3.4-4.8 5.8-3.2zm11.5-8.9c2.2 0 3.3-2.7 1.8-4.2-1.6-1.6-4.2-.4-4.2 1.8 0 1.2 1.2 2.4 2.4 2.4zm7.5 9.7c-1.1 1.6 0 3.9 2.1 3.9 2.2 0 3.3-2.7 1.8-4.2-1.2-1.2-3.1-.9-3.9.3zM47.1 6c1.6.6 3.4-.5 3.4-2.3 0-2.2-2.7-3.3-4.3-1.8-1.2 1.4-.5 3.6.9 4.1zM7.7 18.3c-1.6-1.6-4.2-.4-4.2 1.8s2.7 3.3 4.2 1.8c1-1 1-2.6 0-3.6z" fill-rule="evenodd"/></svg>