<svg xmlns="http://www.w3.org/2000/svg" xmlns:xlink="http://www.w3.org/1999/xlink" viewBox="0 0 89 82" xmlns:v="https://vecta.io/nano"><path d="M76.6 3.4H31V6h45.6c1 0 2 .4 2.7 1.1s1.1 1.7 1.1 2.7v63.3c0 1-.4 2-1.1 2.7s-1.7 1.1-2.7 1.1H31v2.5h45.6c1.7 0 3.3-.7 4.5-1.9S83 74.7 83 73V9.8c0-1.7-.7-3.3-1.9-4.5s-2.8-1.9-4.5-1.9zm-63.3 76h10.1c1.7 0 3.3-.7 4.5-1.9s1.9-2.8 1.9-4.5V9.8c0-1.7-.7-3.3-1.9-4.5s-2.8-1.9-4.5-1.9H13.3c-1.7 0-3.3.7-4.5 1.9S6.9 8.1 6.9 9.8v63.3c0 1.7.7 3.3 1.9 4.5s2.8 1.8 4.5 1.8zM9.5 9.8c0-1 .4-2 1.1-2.7S12.3 6 13.3 6h10.1c1 0 2 .4 2.7 1.1s1.1 1.7 1.1 2.7v63.3c0 1-.4 2-1.1 2.7s-1.7 1.1-2.7 1.1H13.3c-1 0-2-.4-2.7-1.1s-1.1-1.7-1.1-2.7V9.8z"/><use xlink:href="#B"/><use xlink:href="#B" x="-15.2"/><use xlink:href="#C"/><use xlink:href="#B" y="15.2"/><use xlink:href="#B" x="-15.2" y="15.2"/><use xlink:href="#C" y="15.2"/><use xlink:href="#B" y="-15.2"/><use xlink:href="#B" x="-15.2" y="-15.2"/><use xlink:href="#C" y="-15.2"/><path d="M76.6 11c0-.3-.1-.7-.4-.9-.2-.2-.6-.4-.9-.4H34.8c-.7 0-1.3.6-1.3 1.3v15.2c0 .3.1.7.4.9s.6.4.9.4h40.5c.3 0 .7-.1.9-.4s.4-.6.4-.9V11zm-2.5 14h-38V12.3h38V25zM69 19.9h2.5v2.5H69v-2.5zm-5.1 0h2.5v2.5h-2.5v-2.5zm-5 0h2.5v2.5h-2.5v-2.5z"/><defs ><path id="B" d="M70.3 45.2c-1.7 0-3.3.7-4.5 1.9s-1.9 2.8-1.9 4.5.7 3.3 1.9 4.5 2.8 1.9 4.5 1.9 3.3-.7 4.5-1.9 1.9-2.8 1.9-4.5-.7-3.3-1.9-4.5-2.9-1.9-4.5-1.9zm0 10.2c-1 0-2-.4-2.7-1.1s-1.1-1.7-1.1-2.7.4-2 1.1-2.7 1.7-1.1 2.7-1.1 2 .4 2.7 1.1 1.1 1.7 1.1 2.7-.4 2-1.1 2.7c-.8.7-1.7 1.1-2.7 1.1z"/><path id="C" d="M39.9 57.9c1.7 0 3.3-.7 4.5-1.9s1.9-2.8 1.9-4.5-.7-3.3-1.9-4.5-2.8-1.9-4.5-1.9-3.3.7-4.5 1.9-1.9 2.8-1.9 4.5.7 3.3 1.9 4.5 2.8 1.9 4.5 1.9zm0-10.1c1 0 2 .4 2.7 1.1s1.1 1.7 1.1 2.7-.4 2-1.1 2.7-1.7 1.1-2.7 1.1-2-.4-2.7-1.1-1.1-1.7-1.1-2.7.4-2 1.1-2.7 1.7-1.1 2.7-1.1z"/></defs></svg>