<svg width="58" height="59" viewBox="0 0 58 59" fill="none" xmlns="http://www.w3.org/2000/svg">
<g clip-path="url(#clip0_51_3)">
<path d="M24.1626 16.8364C24.1626 17.7327 22.8048 17.7327 22.8048 16.8364V12.5486C22.8048 10.55 25.0113 9.50831 26.7329 9.50831H31.2793C33.0251 9.50831 35.2074 10.5742 35.2074 12.5486V16.8364C35.2074 17.7327 33.8495 17.7327 33.8495 16.8364V12.5486C33.8495 11.3736 32.2249 10.8649 31.2793 10.8649H26.7329C25.8236 10.8649 24.1626 11.3615 24.1626 12.5486V16.8364ZM52.4837 38.2513C52.4837 39.1476 51.1258 39.1476 51.1258 38.2513C51.1258 33.8181 47.4887 30.1844 43.0514 30.1844H29.6789V38.2513C29.6789 39.1476 28.3211 39.1476 28.3211 38.2513V30.1844H14.9486C10.5113 30.1844 6.87416 33.8181 6.87416 38.2513C6.87416 39.1476 5.5163 39.1476 5.5163 38.2513C5.5163 33.0671 9.75962 28.8278 14.9486 28.8278H28.3211V20.7608C28.3211 19.8645 29.6789 19.8645 29.6789 20.7608V28.8278H43.0514C48.2404 28.8278 52.4837 33.0671 52.4837 38.2513ZM54.7508 42.745C56.3027 44.3439 56.2906 46.9238 54.7023 48.4985C53.1141 50.0973 50.4954 50.0852 48.9072 48.4985C47.319 46.8996 47.3069 44.2954 48.9072 42.6966C50.459 41.1462 53.2354 41.0856 54.7508 42.745ZM49.865 43.6656C48.7981 44.7315 48.7981 46.4757 49.865 47.5416C50.9319 48.6075 52.6898 48.6075 53.7446 47.5416C54.7993 46.4999 54.8115 44.7678 53.7809 43.7019C52.6534 42.636 50.9925 42.5391 49.865 43.6656ZM46.9674 58.3338C46.9674 59.2301 45.6095 59.2301 45.6095 58.3338V54.046C45.6095 53.1739 46.0824 52.3866 46.8462 51.8294C47.5493 51.3207 48.495 51.0057 49.5376 51.0057H54.084C55.1145 51.0057 56.0723 51.3207 56.7755 51.8294C57.5393 52.3866 58.0121 53.1618 58.0121 54.046V58.3338C58.0121 59.2301 56.6543 59.2301 56.6543 58.3338V54.046C56.6543 53.622 56.3997 53.2223 55.9875 52.9195C55.5146 52.5683 54.8478 52.3623 54.0962 52.3623H49.5498C48.7981 52.3623 48.1313 52.5804 47.6584 52.9195C47.2462 53.2223 46.9916 53.622 46.9916 54.046L46.9674 58.3338ZM6.19523 41.4974C8.46237 41.4974 10.2931 43.3385 10.2931 45.5915C10.2931 47.8444 8.45025 49.6855 6.19523 49.6855C3.92809 49.6855 2.08528 47.8444 2.08528 45.5915C2.09741 43.3385 3.92809 41.4974 6.19523 41.4974ZM6.19523 42.854C4.67977 42.854 3.45527 44.0774 3.45527 45.5915C3.45527 47.1055 4.67977 48.3289 6.19523 48.3289C7.7107 48.3289 8.9352 47.1055 8.9352 45.5915C8.9352 44.0895 7.7107 42.854 6.19523 42.854ZM1.35786 58.3338C1.35786 59.2301 0 59.2301 0 58.3338V54.046C0 53.1739 0.472826 52.3866 1.23662 51.8294C1.9398 51.3207 2.88545 51.0057 3.92809 51.0057H8.4745C9.50502 51.0057 10.4628 51.3207 11.166 51.8294C11.9298 52.3866 12.4026 53.1618 12.4026 54.046V58.3338C12.4026 59.2301 11.0447 59.2301 11.0447 58.3338V54.046C11.0447 53.622 10.7901 53.2223 10.3779 52.9195C9.9051 52.5683 9.23829 52.3623 8.48662 52.3623H3.92809C3.17642 52.3623 2.50962 52.5804 2.03679 52.9195C1.62458 53.2223 1.36998 53.622 1.36998 54.046L1.35786 58.3338ZM31.8976 42.6966C33.4858 44.2954 33.4979 46.8996 31.8976 48.4863C30.2972 50.0731 27.6906 50.0852 26.1024 48.4863C24.5142 46.8875 24.5021 44.2833 26.1024 42.6966C27.7028 41.1098 30.2972 41.1098 31.8976 42.6966ZM30.9398 43.6656C29.8729 42.5997 28.115 42.5997 27.0602 43.6656C25.9933 44.7315 25.9933 46.4878 27.0602 47.5537C28.1271 48.6196 29.885 48.6196 30.9519 47.5537C32.0067 46.4757 32.0067 44.7194 30.9398 43.6656ZM24.1626 58.3338C24.1626 59.2301 22.8048 59.2301 22.8048 58.3338V54.046C22.8048 53.1739 23.2776 52.3866 24.0414 51.8294C24.7446 51.3207 25.6902 51.0057 26.7329 51.0057H31.2793C32.3098 51.0057 33.2676 51.3207 33.9707 51.8294C34.7345 52.3866 35.2074 53.1618 35.2074 54.046V58.3338C35.2074 59.2301 33.8495 59.2301 33.8495 58.3338V54.046C33.8495 53.622 33.5949 53.2223 33.1827 52.9195C32.7099 52.5683 32.0431 52.3623 31.2914 52.3623H26.745C25.9933 52.3623 25.3265 52.5804 24.8537 52.9195C24.4415 53.2223 24.1869 53.622 24.1869 54.046L24.1626 58.3338ZM29 0C31.2671 0 33.0978 1.8411 33.0978 4.10614C33.0978 6.35906 31.255 8.20016 29 8.20016C26.745 8.20016 24.9022 6.35906 24.9022 4.10614C24.9022 1.8411 26.7329 0 29 0ZM29 1.3566C27.4845 1.3566 26.26 2.57996 26.26 4.09403C26.26 5.60809 27.4845 6.83145 29 6.83145C30.5155 6.83145 31.74 5.60809 31.74 4.09403C31.7521 2.57996 30.5155 1.3566 29 1.3566Z" fill="white"/>
</g>
<defs>
<clipPath id="clip0_51_3">
<rect width="58" height="59" fill="white"/>
</clipPath>
</defs>
</svg>
